HIERARCHY
ROOT root
{
	OFFSET 0.000000 0.000000 0.000000
	CHANNELS 6 Xposition Yposition Zposition Zrotation Yrotation Xrotation
	JOINT lhip
	{
		OFFSET 0.058581 -0.082280 -0.017664
		CHANNELS 3 Zrotation Yrotation Xrotation
		JOINT lknee
		{
			OFFSET 0.043451 -0.386469 0.008037
			CHANNELS 3 Zrotation Yrotation Xrotation
			JOINT lankle
			{
				OFFSET -0.014790 -0.426874 -0.037428
				CHANNELS 3 Zrotation Yrotation Xrotation
				JOINT ltoe
				{
					OFFSET 0.041054 -0.060286 0.122042
					CHANNELS 3 Zrotation Yrotation Xrotation
					End Site
					{
						OFFSET 0.000000 0.000000 0.000000
					}
				}
			}
		}
	}
	JOINT rhip
	{
		OFFSET -0.060310 -0.090513 -0.013543
		CHANNELS 3 Zrotation Yrotation Xrotation
		JOINT rknee
		{
			OFFSET -0.043257 -0.383688 -0.004843
			CHANNELS 3 Zrotation Yrotation Xrotation
			JOINT rankle
			{
				OFFSET 0.019056 -0.420046 -0.034562
				CHANNELS 3 Zrotation Yrotation Xrotation
				JOINT rtoe
				{
					OFFSET -0.034840 -0.062106 0.130323
					CHANNELS 3 Zrotation Yrotation Xrotation
					End Site
					{
						OFFSET 0.000000 0.000000 0.000000
					}
				}
			}
		}
	}
	JOINT lowerback
	{
		OFFSET 0.004439 0.124404 -0.038385
		CHANNELS 3 Zrotation Yrotation Xrotation
		JOINT upperback
		{
			OFFSET 0.004488 0.137956 0.026820
			CHANNELS 3 Zrotation Yrotation Xrotation
			JOINT chest
			{
				OFFSET -0.002265 0.056032 0.002855
				CHANNELS 3 Zrotation Yrotation Xrotation
				JOINT lowerneck
				{
					OFFSET -0.013390 0.211636 -0.033468
					CHANNELS 3 Zrotation Yrotation Xrotation
					JOINT upperneck
					{
						OFFSET 0.010113 0.088937 0.050410
						CHANNELS 3 Zrotation Yrotation Xrotation
						End Site
						{
							OFFSET 0.000000 0.000000 0.000000
						}
					}
				}
				JOINT lclavicle
				{
					OFFSET 0.071702 0.114000 -0.018898
					CHANNELS 3 Zrotation Yrotation Xrotation
					JOINT lshoulder
					{
						OFFSET 0.122921 0.045205 -0.019046
						CHANNELS 3 Zrotation Yrotation Xrotation
						JOINT lelbow
						{
							OFFSET 0.255332 -0.015649 -0.022946
							CHANNELS 3 Zrotation Yrotation Xrotation
							JOINT lwrist
							{
								OFFSET 0.265709 0.012698 -0.007375
								CHANNELS 3 Zrotation Yrotation Xrotation
								End Site
								{
									OFFSET 0.000000 0.000000 0.000000
								}
							}
						}
					}
				}
				JOINT rclavicle
				{
					OFFSET -0.082954 0.112472 -0.023707
					CHANNELS 3 Zrotation Yrotation Xrotation
					JOINT rshoulder
					{
						OFFSET -0.113228 0.046853 -0.008472
						CHANNELS 3 Zrotation Yrotation Xrotation
						JOINT relbow
						{
							OFFSET -0.260127 -0.014369 -0.031269
							CHANNELS 3 Zrotation Yrotation Xrotation
							JOINT rwrist
							{
								OFFSET -0.269108 0.006794 -0.006027
								CHANNELS 3 Zrotation Yrotation Xrotation
								End Site
								{
									OFFSET 0.000000 0.000000 0.000000
								}
							}
						}
					}
				}
			}
		}
	}
}
MOTION
Frames: 8
Frame Time: 0.033333
0.990101 0.269264 1.018971 -58.973416 1.597402 88.690006 0.075089 2.022016 4.991776 -1.896912 -1.578960 3.415436 6.165135 15.013661 -18.703975 0.000000 -0.000000 0.000000 5.380442 1.453536 -2.938666 -1.104058 0.594864 14.329236 -1.111740 -10.335732 -19.756590 0.000000 -0.000000 0.000000 -0.507875 -0.938421 1.933425 0.995465 -2.521747 1.917220 -0.124538 -1.652821 2.057673 4.493864 -1.581792 1.767889 3.035285 -4.387678 9.036666 -28.911649 0.244650 5.216370 -63.200942 -6.706969 10.071928 11.186749 -11.022396 -3.648704 5.647139 -1.726230 -10.198801 26.036035 3.434233 4.119489 61.424690 1.979504 16.244378 -10.644233 16.768924 4.170671 6.155308 3.749685 -9.155505 
0.989036 0.268767 1.018587 -58.765870 1.599162 88.787987 0.089393 1.984448 4.997528 -1.875485 -1.646740 3.387498 6.195840 14.914334 -18.972981 0.000000 -0.000000 0.000000 5.377174 1.335996 -2.841775 -1.087278 0.528052 14.175899 -1.098721 -10.399037 -19.958798 0.000000 -0.000000 0.000000 -0.391244 -0.919749 2.231753 0.996572 -2.498279 1.605728 -0.151176 -1.638579 2.082891 4.541211 -1.603493 1.592451 2.943103 -4.555143 9.180309 -28.913789 0.274295 5.126789 -63.158905 -6.741248 10.101509 11.137460 -11.159503 -3.356323 5.352233 -1.909393 -10.069525 25.994833 3.392212 4.044575 61.468199 1.972058 16.256437 -10.526034 16.670813 4.155440 6.251372 3.774243 -9.157003 
0.987845 0.267883 1.018167 -58.649074 1.527367 88.882562 0.044497 2.009574 5.137102 -1.925704 -1.738553 3.155475 6.232998 14.891080 -19.159904 0.000000 -0.000000 0.000000 5.273847 1.326611 -2.789374 -1.059014 0.454960 14.153199 -1.067740 -10.529372 -20.205171 0.000000 -0.000000 0.000000 -0.416853 -0.911060 2.025784 0.991439 -2.518039 2.009867 -0.138678 -1.636710 2.084126 4.522538 -1.733123 1.618614 2.992136 -4.575264 9.043815 -28.969580 0.040696 5.184536 -63.068475 -6.941834 10.180934 11.166108 -11.250865 -3.550310 5.432378 -1.899428 -10.274220 26.013487 3.598077 4.057268 61.469876 2.033614 16.256418 -10.545627 16.578054 4.217263 6.468902 3.694310 -9.057826 
0.986309 0.266396 1.017723 -58.535834 1.491419 89.097708 -0.035761 1.964664 5.092222 -1.931780 -1.823374 3.124033 6.315973 14.957956 -19.457945 0.000000 -0.000000 0.000000 5.257874 1.398259 -2.868179 -1.108595 0.445305 14.198598 -1.059784 -10.751586 -20.537331 0.000000 -0.000000 0.000000 -0.400666 -0.972922 1.986473 1.011601 -2.576852 1.913903 -0.155291 -1.670625 2.079186 4.583221 -1.706109 1.719307 2.924422 -4.485757 9.141903 -28.919901 0.046586 5.191564 -63.048085 -6.980957 10.238879 11.101812 -11.305482 -3.469477 5.319830 -1.952400 -10.375232 25.965648 3.539929 4.038036 61.531031 1.959623 16.336044 -10.522368 16.561778 4.344744 6.614985 3.699891 -9.034776 
0.984390 0.264569 1.017127 -58.440064 1.491702 89.313679 -0.072896 1.830777 4.956695 -1.975717 -1.868482 3.358214 6.452319 15.043770 -19.927798 0.000000 -0.000000 0.000000 5.253062 1.500405 -2.926031 -1.090059 0.492749 14.255675 -1.079611 -11.031258 -20.973294 0.000000 -0.000000 0.000000 -0.359131 -1.026538 2.078922 1.063299 -2.628040 1.654595 -0.180342 -1.726268 2.092631 4.654066 -1.642071 1.710807 2.834344 -4.474424 9.262100 -28.908385 0.152123 5.167211 -62.989346 -6.992403 10.234006 11.076206 -11.366785 -3.309814 4.908974 -2.089592 -10.393107 25.946858 3.373631 3.975019 61.540816 1.851629 16.389359 -10.467263 16.588980 4.384535 6.784959 3.778095 -9.090475 
0.982021 0.262156 1.016254 -58.468715 1.519716 89.498027 -0.116141 1.673451 4.918077 -2.011911 -1.929266 3.610276 6.612838 15.211349 -20.481209 0.000000 -0.000000 0.000000 5.267501 1.618099 -2.909340 -1.061502 0.587302 14.316876 -1.155780 -11.361610 -21.517136 0.000000 -0.000000 0.000000 -0.296182 -1.043095 2.012997 1.101818 -2.630277 1.711508 -0.165161 -1.731434 2.128576 4.686893 -1.648371 1.577401 2.777299 -4.455443 9.195925 -28.907183 0.082431 5.193205 -62.964943 -7.058962 10.265008 11.096430 -11.473026 -3.342849 4.765368 -2.109914 -10.582002 25.935902 3.466313 3.987548 61.481081 1.764839 16.416692 -10.464622 16.614570 4.443402 6.950146 3.822285 -9.108986 
0.978912 0.259011 1.015200 -58.587586 1.542686 89.749993 -0.197675 1.579884 4.912080 -2.041558 -2.015492 3.812719 6.778929 15.456474 -21.124975 0.000000 -0.000000 0.000000 5.244993 1.693007 -2.929174 -1.065523 0.736015 14.459873 -1.203307 -11.565210 -22.203618 0.000000 -0.000000 0.000000 -0.219612 -1.007919 1.918294 1.136730 -2.605727 1.678807 -0.149376 -1.740271 2.151543 4.743415 -1.618079 1.469785 2.682674 -4.402157 9.160972 -28.899800 0.047264 5.197975 -62.979156 -7.050019 10.311104 11.065011 -11.558001 -3.285844 4.816169 -2.124135 -10.677678 25.922225 3.512971 3.979973 61.423101 1.706802 16.430414 -10.445098 16.525466 4.464696 6.955671 3.809407 -9.084708 
0.974830 0.255009 1.014052 -58.671199 1.564587 90.097324 -0.319585 1.512505 4.920063 -2.018980 -2.111796 3.901527 6.930840 15.684502 -21.761167 0.000000 -0.000000 0.000000 5.192983 1.708904 -2.947014 -1.034328 0.911748 14.560174 -1.174344 -11.643665 -22.884039 0.000000 -0.000000 0.000000 -0.127511 -0.950662 1.725729 1.163031 -2.580267 1.610638 -0.155710 -1.763001 2.171345 4.793797 -1.616119 1.356802 2.583496 -4.489006 9.177992 -28.876806 0.075021 5.187097 -63.016489 -7.068821 10.361842 11.016224 -11.542646 -3.133255 4.791431 -2.137671 -10.731625 25.924582 3.427012 3.925301 61.385593 1.698307 16.402383 -10.413541 16.340273 4.464644 7.029818 3.783948 -9.120138 
